<?xml version="1.0" standalone="no"?>
<!DOCTYPE svg PUBLIC "-//W3C//DTD SVG 20010904//EN"
 "http://www.w3.org/TR/2001/REC-SVG-20010904/DTD/svg10.dtd">
<svg version="1.0" xmlns="http://www.w3.org/2000/svg"
 width="268.000000pt" height="268.000000pt" viewBox="0 0 268.000000 268.000000"
 preserveAspectRatio="xMidYMid meet">
<metadata>
Created by potrace 1.11, written by Peter Selinger 2001-2013
</metadata>
<g transform="translate(0.000000,268.000000) scale(0.100000,-0.100000)"
fill="#000000" stroke="none">
<path d="M674 1995 c-33 -17 -64 -62 -64 -94 0 -17 -6 -21 -34 -21 -40 0 -49
-15 -36 -62 11 -38 9 -41 -50 -57 -146 -42 -249 -153 -279 -301 -13 -64 -20
-515 -8 -546 6 -17 3 -23 -13 -27 -12 -3 -20 -13 -20 -26 0 -16 6 -21 29 -21
18 0 41 -11 61 -30 17 -16 48 -34 68 -40 49 -13 149 -13 158 1 3 6 14 -6 24
-28 38 -85 140 -137 224 -113 57 16 114 63 137 114 10 23 19 35 19 28 0 -10
94 -12 460 -10 l460 3 10 -26 c24 -56 118 -119 179 -119 65 0 156 60 181 119
8 20 17 27 30 24 31 -8 107 32 125 66 12 24 22 31 44 31 29 0 42 14 34 38 -3
6 -16 12 -29 12 -21 0 -24 5 -24 37 0 34 1 35 18 20 13 -12 37 -17 80 -17 88
0 92 8 92 185 0 177 -4 185 -94 185 -44 0 -67 -5 -76 -15 -17 -20 -30 -19 -30
3 0 28 -34 121 -79 217 -50 107 -118 178 -214 220 -50 23 -65 34 -60 45 4 8 7
31 7 50 l1 35 -427 3 -428 2 0 25 c0 15 -14 41 -34 63 l-34 37 -189 3 c-153 2
-194 -1 -219 -13z m401 -60 c14 -13 25 -31 25 -40 0 -13 -28 -15 -220 -15
-211 0 -220 1 -220 19 0 11 12 29 26 40 25 19 40 21 196 21 166 0 169 0 193
-25z m-447 -125 c10 -16 10 -20 -1 -20 -14 0 -37 20 -37 32 0 16 25 8 38 -12z
m436 10 c-13 -13 -353 -15 -367 -1 -8 8 43 11 183 11 124 0 191 -3 184 -10z
m884 -7 c-3 -17 -32 -18 -411 -21 -224 -1 -407 0 -407 2 0 2 3 11 6 20 5 14
51 16 411 16 380 0 404 -1 401 -17z m69 -102 c118 -53 146 -51 -766 -51 -462
0 -841 2 -841 5 0 2 18 14 40 25 94 48 111 49 835 47 l680 -2 52 -24z m155
-118 c23 -26 82 -148 107 -222 21 -62 41 -186 41 -260 l0 -33 -71 76 c-80 85
-131 119 -220 147 -58 18 -107 19 -920 19 -852 0 -859 0 -859 20 0 17 7 20 48
20 55 0 77 11 69 34 -5 12 -20 16 -57 16 -27 0 -50 5 -50 10 0 6 22 10 49 10
30 0 53 5 61 15 19 23 2 35 -51 35 -68 0 -62 18 9 22 50 3 57 6 60 26 3 20 -1
22 -42 22 -25 0 -46 2 -46 5 0 3 7 17 16 30 l16 25 913 0 c856 0 913 -1 927
-17z m-163 -342 c119 -37 214 -119 273 -235 33 -66 32 -103 -4 -108 -31 -4
-36 -36 -7 -46 l22 -9 -24 -17 c-24 -16 -24 -16 -31 23 -9 55 -31 93 -74 131
-51 44 -98 62 -164 62 -126 0 -215 -79 -244 -214 l-6 -28 -410 0 -409 0 -15
29 c-9 16 -27 43 -42 60 l-26 31 -158 0 -158 0 -32 -36 c-17 -20 -36 -47 -42
-60 -13 -28 -48 -31 -113 -12 l-40 12 35 5 c26 5 35 11 35 26 0 17 -8 20 -56
23 -54 3 -57 4 -63 34 -3 17 -6 102 -6 189 l0 159 849 0 c805 0 852 -1 910
-19z m486 -51 l0 -65 -42 -3 -43 -3 0 71 0 71 43 -3 42 -3 0 -65z m-447 -332
c17 -15 15 -68 -5 -90 -39 -43 -107 -8 -101 53 5 52 62 71 106 37z m-1314 -4
c21 -20 20 -63 -1 -86 -19 -21 -62 -24 -88 -4 -21 15 -23 69 -4 92 15 19 74
18 93 -2z"/>
<path d="M426 1568 c-20 -32 -32 -184 -16 -203 10 -12 51 -15 234 -15 159 0
225 3 234 12 16 16 16 200 0 216 -9 9 -73 12 -225 12 -210 0 -213 0 -227 -22z
m414 -98 l0 -70 -196 0 -196 0 7 48 c14 102 -8 92 201 92 l184 0 0 -70z"/>
<path d="M932 1578 c-16 -16 -16 -200 0 -216 17 -17 589 -17 606 0 16 16 16
200 0 216 -17 17 -589 17 -606 0z m568 -108 l0 -70 -265 0 -265 0 0 70 0 70
265 0 265 0 0 -70z"/>
<path d="M1602 1578 c-18 -18 -16 -202 2 -217 9 -8 99 -11 306 -9 264 3 294 5
304 20 8 13 4 38 -18 105 -16 48 -33 94 -38 101 -15 17 -538 18 -556 0z m536
-100 c12 -35 22 -66 22 -70 0 -5 -117 -8 -260 -8 l-260 0 0 70 0 70 238 0 238
0 22 -62z"/>
</g>
</svg>
